# xmcd
#
# Track frame offsets:
#	150
#	12545
#	25507
#	37175
#	50352
#	62272
#	72142
#	83100
#	95110
#	104532
#	118515
#	130972
#
# Disc length: 1921 seconds
#
# Revision: 1
# Processed by: cddbd v1.5.1PL0 Copyright (c) Steve Scherf et al.
# Submitted via: CDex 1.50Beta5
#
DISCID=9d077f0c
DTITLE=サウンドトラック - マイ・ガール
DYEAR=1900
DGENRE=
TTITLE0=マイ・ガール
TTITLE1=レット・イット・スノウ
TTITLE2=シェリー
TTITLE3=海の彼方に
TTITLE4=ゲット・レディ
TTITLE5=アイ・ゲット・アラウンド
TTITLE6=暑い夏をぶっとばせ
TTITLE7=ビー・マイ・ベイビー
TTITLE8=ラ.バンバ
TTITLE9=バナナ・ボート
TTITLE10=プリーズ・プリーズ・プリーズ
TTITLE11=ヘイ・グッド・ルッキング
EXTD=
EXTT0=
EXTT1=
EXTT2=
EXTT3=
EXTT4=
EXTT5=
EXTT6=
EXTT7=
EXTT8=
EXTT9=
EXTT10=
EXTT11=
PLAYORDER=
